<?xml version="1.0" encoding="utf-8" ?><svg xmlns="http://www.w3.org/2000/svg" xmlns:xlink="http://www.w3.org/1999/xlink" width="1024" height="1024" viewBox="0 0 1024 1024"><path fill="#162F4E" d="M225.077 52.2461L804.52 52.3565C853.158 52.7876 891.794 71.2602 925.522 105.67C946.289 127.457 963.597 157.822 968.759 187.714C973.248 213.712 971.657 244.646 971.631 271.293L971.492 398.031L971.224 648.416L971.5 752.217C971.551 768.322 971.609 784.533 971.744 800.603C972.318 868.667 932.173 931.501 869.588 958.595C847.861 968.001 823.919 971.668 800.125 971.38L268.881 971.44L232.695 971.527C221.671 971.538 210.553 971.821 199.619 970.508C131.234 962.294 74.2857 911.739 57.347 845.044C51.8836 823.532 52.8234 806.779 52.9678 784.998L52.9352 747.858L52.6702 594.128L52.7704 333.003L52.8097 249.471C52.8373 230.51 51.8465 204.452 55.563 186.529C61.6989 156.939 79.063 124.028 100.333 102.385C122.756 79.5674 154.003 61.292 185.547 54.9209C198.043 52.3971 212.329 52.2998 225.077 52.2461Z"/><path fill="#FEFEFE" d="M555.463 173.717C571.743 172.658 586.471 176.165 598.536 187.578C608.521 197.024 614.849 213.084 614.917 226.675C615.398 323.364 582.451 422.254 516.297 493.855C442.707 574.161 339.487 607.659 232.857 610.549C187.075 612.81 168.103 583.851 173.814 541.572C175.708 527.544 176.678 514.463 179.177 500.111C192.359 424.41 223.226 353.279 275.456 296.28C329.343 236.937 403.65 194.381 482.773 179.992C509.846 175.068 528.376 175.053 555.463 173.717Z"/><path fill="#162F4E" d="M553.751 184.226C574.832 183.269 592.585 188.297 600.818 209.502C605.091 220.508 604.674 230.093 604.573 241.706C604.269 276.713 598.248 311.805 588.089 345.268C585.474 353.852 582.77 362.686 579.153 370.892C566.089 358.661 553.979 345.474 541.186 333.019C527.891 320.077 515.015 305.944 501.047 293.829C488.285 306.281 470.694 323.734 459.206 336.779C462.883 340.758 479.468 355.479 478.372 360.311C473.426 382.122 454.048 356.59 446.972 349.74C442.35 353.798 437.564 359.079 433.264 363.586C440.07 369.711 447.728 376.474 453.496 383.5C454.385 400.32 442.951 398.689 433.964 389.15C429.961 384.901 424.702 380.014 420.291 376.142C416.086 379.739 410.821 385.837 406.792 390.116C411.135 394.514 428.149 408.856 427.19 414.39C423.162 437.614 400.757 410.397 393.713 403.488C388.675 408.22 384.99 411.774 380.666 417.163C386.579 423.717 397.809 432.785 401.208 440.703C402.885 444.612 397.707 450.33 393.141 450.816C391.601 450.986 390.047 450.68 388.687 449.939C385.041 447.954 372.76 434.76 367.322 430.435C362.752 435.015 359.025 439.283 354.177 443.893C360.93 450.953 369.237 456.928 375.336 464.514C376.106 465.614 376.398 470.006 375.755 471.103C368.91 482.775 359.712 473.962 353.67 467.617C349.415 463.148 345.953 459.768 342.277 456.008C339.587 458.264 336.004 461.611 333.664 464.23C321.769 477.543 307.01 489.594 295.028 502.554C301.057 509.817 308.89 516.881 315.487 523.711C332.528 541.352 352.89 559.052 369.006 577.314C333.11 589.976 286.02 597.899 248.124 599.942C224.78 600.846 200.914 603.915 187.973 578.973C180.16 563.914 183.723 549.733 184.979 533.748C188.111 493.893 199.015 457.541 211.346 419.807C216.332 423.819 227.384 435.707 232.571 440.768C250.506 458.14 268.299 475.659 285.947 493.322C290.087 489.832 298.693 480.75 302.733 476.7C312.743 466.83 322.638 456.843 332.417 446.744C327.636 440.344 311.053 427.398 311.816 422.25C315.208 399.379 340.62 430.463 343.351 433.194C347.836 428.887 352.573 423.736 356.905 419.196C351.826 413.755 337.441 402.065 337.7 396.937C338.455 381.975 352.369 386.928 358.59 395.733C359.76 397.388 367.778 404.759 368.847 405.67L369.433 406.165C374.292 401.65 378.479 397.269 383.57 392.764C378.373 387.861 366.258 377.429 364.461 370.189C363.624 366.819 368.441 360.45 372.463 361.065C380.466 362.29 390.11 373.88 395.859 379.818C400.666 374.671 404.92 370.159 410.033 365.337C405.441 359.152 390.076 348.75 390.541 343.262C392.757 317.065 418.838 348.675 422.227 351.91C427.143 347.754 431.731 343.224 435.95 338.362C432.119 334.052 417.526 321.153 418.368 316.086C422.051 293.931 443.263 320.146 449.882 326.311C463.601 314.518 478.894 297.356 492.493 284.307C467.953 260.452 442.029 231.829 416.576 209.534C422.761 206.621 431.241 203.898 437.734 201.639C476.296 188.222 513.273 185.094 553.751 184.226Z"/><path fill="#FEFEFE" d="M589.75 202.351C598.613 212.571 598.313 230.262 598.073 242.95C597.6 271.42 593.697 299.73 586.446 327.265C578.46 318.861 570.113 310.474 562.009 302.164C551.873 291.833 535.774 277.448 527.049 266.716C543.931 250.679 559.867 233.761 576.196 217.171C580.87 212.422 585.622 207.579 589.75 202.351Z"/><path fill="#FEFEFE" d="M203.978 462.154C205.766 463.386 219.51 477.417 221.86 479.883C233.251 491.837 249.843 506.14 259.844 518.627L221.443 557.316C213.422 564.918 204.395 573.967 196.215 581.215C189.858 574.256 187.995 560.964 188.807 551.952C191.533 521.669 196.286 491.556 203.978 462.154Z"/><path fill="#FEFEFE" d="M558.249 189.739C567.736 189.905 573.664 190.802 582.212 195.136C561.408 215.989 538.492 236.746 518.645 258.369C513.319 252.951 508.02 247.506 502.75 242.033L476.999 216.124C472.809 211.903 465.194 204.745 461.847 200.335C492.485 192.317 526.723 190.327 558.249 189.739Z"/><path fill="#FEFEFE" d="M268.014 528.265C272.732 530.203 302.622 561.109 308.538 567.281C312.885 571.817 321.057 578.968 325.217 583.632C303.45 588.011 283.532 591.77 261.378 593.58C242.279 595.067 223.567 597.248 205.485 590.838C225.885 569.903 248 549.609 268.014 528.265Z"/><path fill="#FEFEFE" d="M822.301 349.238L823.696 349.2C825.095 351.591 821.518 376.699 820.948 381.551C818.932 398.327 817.034 415.117 815.252 431.92L808.41 491.988C807.022 504.298 805.781 519.034 803.791 531.055C783.529 512.219 763.448 491.619 743.783 472.048C740.624 474.656 735.517 479.981 732.483 482.981C724.25 491.149 716.094 499.392 708.014 507.711C700.697 515.123 693.024 522.261 685.661 529.667C669.808 545.904 653.819 562.008 637.695 577.976C573.357 641.265 509.393 704.933 445.805 768.976C421.494 793.4 395.868 817.452 371.97 842.248C366.25 836.232 360.411 829.065 355 822.724L323.095 785.233L228.367 675.023C214.159 658.359 200.041 641.619 186.013 624.803C198.084 631.527 211.699 641.209 223.086 649.053L262.622 676.151L374.15 753.686C388.421 737.408 407.621 719.557 423.22 704.119L489.689 637.628L699.732 428.98C685.305 414.3 669.829 400.424 655.362 385.758C650.527 380.858 644.855 375.91 640.41 370.736C661.701 367.298 687.189 364.812 708.849 362.391C746.198 358.216 785.023 352.708 822.301 349.238Z"/><path fill="#FEFEFE" d="M715.479 718.015C752.435 717.799 789.392 717.965 826.343 718.515C822.313 722.195 819.346 724.834 815.786 729.023C786.155 729.353 756.499 728.883 726.84 729.417C726.83 765.086 727.423 802.296 726.669 837.774C755.857 837.513 785.047 837.443 814.236 837.563L829.355 837.572C829.185 821.031 829.183 804.489 829.347 787.948C832.505 783.995 836.482 780.331 840.124 776.781C840.577 784.117 840.387 793.915 840.425 801.369L840.462 849.043C798.858 849.308 757.254 849.322 715.65 849.085L715.479 718.015Z"/><path fill="#FEFEFE" d="M714.393 560.534C750.142 560.485 788.463 560.011 824.109 560.828C820.146 564.954 815.961 568.86 811.571 572.529L725.401 572.432L725.351 679.118C753.843 678.761 782.843 679.004 811.375 678.972L829.52 678.996L829.481 628.712C832.764 625.404 836.629 622.042 840.107 618.891C840.418 627.13 840.134 636.969 840.115 645.392L840.172 690.114C823.59 690.408 806.786 690.031 790.186 690.03L714.5 690.149L714.393 560.534Z"/><path fill="#FEFEFE" d="M861.51 715.91C864.098 716.651 869.777 723.783 871.842 726.191C836.7 754.844 801.591 788.901 778.31 828.036C769.219 820.41 757.331 804.339 751.063 794.381C745.594 785.326 740.251 775.512 735.03 766.266C754.503 775.405 759.812 783.815 774.5 796.269C800.281 764.723 828.424 739.634 861.51 715.91Z"/><path fill="#FEFEFE" d="M862.707 556.398C864.627 557.2 871.575 565.128 873.288 567.092C832.734 601.216 807.104 621.558 778.163 666.91C766.648 655.843 760.857 647.552 752.437 634.29C747.643 626.169 741.274 615.62 737.416 607.142C747.829 611.284 767.196 626.65 773.336 636.107C775.837 633.473 778.243 630.391 780.652 627.634C804.362 600.494 833.967 577.745 862.707 556.398Z"/><path fill="#050306" fill-opacity="0.027450981" d="M905.177 939.531L905.295 940.005C904.213 941.158 903.233 942.917 902.379 944.307L901.596 943.576C901.797 941.486 903.552 940.533 905.177 939.531Z"/></svg>